<?xml version="1.0" encoding="utf-8"?>
<!-- Generator: Adobe Illustrator 16.0.4, SVG Export Plug-In . SVG Version: 6.00 Build 0)  -->
<!DOCTYPE svg PUBLIC "-//W3C//DTD SVG 1.1//EN" "http://www.w3.org/Graphics/SVG/1.1/DTD/svg11.dtd">
<svg version="1.1" id="Layer_1" xmlns="http://www.w3.org/2000/svg" xmlns:xlink="http://www.w3.org/1999/xlink" x="0px" y="0px"
	 width="500px" height="500px" viewBox="0 0 500 500" enable-background="new 0 0 500 500" xml:space="preserve">
<path fill="none" d="M252.445,497.586c-135.259,0-245.303-110.041-245.303-245.302c0-135.26,110.043-245.303,245.303-245.303
	c135.261,0,245.305,110.043,245.305,245.303C497.75,387.545,387.706,497.586,252.445,497.586z M252.445,22.604
	c-126.646,0-229.679,103.035-229.679,229.68c0,126.646,103.035,229.679,229.679,229.679c126.646,0,229.681-103.033,229.681-229.679
	C482.126,125.639,379.092,22.604,252.445,22.604z"/>
<g>
	<g>
		<path fill="none" d="M252.475,312c-0.238,0-0.463,0-0.699,0c-43.384,0-83.833-30.018-111.059-82.617l-3.423-4.837L22,313.889
			v11.938l112.162-87.729C163.056,290.85,206.132,320,251.771,320c0.254,0,0.517,0,0.77,0c0.016,0,0.459,0.792,0.459,0.792v-9.552
			C253,311.24,252.512,312,252.475,312z"/>
	</g>
	<g>
		<path fill="none" d="M251.9,312c0.238,0,0.468,0,0.701,0c43.693,0,84.42-30.018,111.832-82.617l3.007-4.837l115.661,89.378
			l-112.504-75.808C341.503,290.867,298.565,320,252.607,320c-0.258,0-0.521,0-0.775,0c-0.014,0,1.168,0.792,1.168,0.792v-9.552
			C253,311.24,251.861,312,251.9,312z"/>
		<path fill="none" d="M252.445,489.774c166.21,5.516,230.656-175.888,230.656-175.888
			C370.599,237.86,370.599,237.86,370.599,237.86s-51.82,85.056-124.032,81.15c-72.211-3.906-112.3-81.15-112.3-81.15
			L28.625,320.792C64.148,380.402,86.236,484.263,252.445,489.774z"/>
	</g>
</g>
</svg>
